<svg width="624" height="124" viewBox="0 0 624 124" fill="none" xmlns="http://www.w3.org/2000/svg">
<path d="M242.935 100.381V22.1092L256.033 15.9673V58.8162L273.572 40.6346H289.122L272.406 57.4684L294.504 100.372H280.239L262.881 66.9392L256.042 73.8319V100.372H242.944L242.935 100.381Z" fill="white"/>
<path d="M354.196 44.3253C353.246 39.3412 351.645 34.7913 349.402 30.6755C347.167 26.5688 344.146 23.2853 340.347 20.8339C336.548 18.3735 331.781 17.1523 326.055 17.1523C321.415 17.1523 317.417 17.9845 314.042 19.658C310.668 21.3404 307.855 23.6109 305.594 26.4693C303.333 29.3367 301.541 32.5932 300.221 36.2295C298.891 39.8749 297.95 43.6921 297.381 47.6903C296.82 51.6884 296.539 55.6051 296.539 59.4676C296.539 64.4969 297.01 69.5082 297.968 74.5194C298.918 79.5307 300.51 84.0897 302.736 88.1964C304.952 92.3121 307.973 95.6047 311.79 98.0742C315.607 100.553 320.365 101.792 326.055 101.792C330.695 101.792 334.685 100.951 338.04 99.2772C341.387 97.5947 344.191 95.3243 346.453 92.4388C348.714 89.5532 350.514 86.2878 351.862 82.6424C353.21 78.997 354.169 75.1798 354.757 71.1907C355.345 67.1925 355.634 63.2848 355.634 59.4676C355.634 54.3659 355.155 49.3184 354.196 44.3253ZM310.831 48.9476C311.311 45.4379 312.143 42.2448 313.31 39.3593C314.477 36.4737 316.105 34.158 318.194 32.4032C320.275 30.6483 322.898 29.7709 326.055 29.7709C329.212 29.7709 331.754 30.6212 333.798 32.3128C335.661 33.8686 337.172 35.8948 338.294 38.4004L310.949 70.8198C310.913 70.6299 310.886 70.4399 310.858 70.25C310.352 66.7222 310.099 63.131 310.099 59.4676C310.099 55.8041 310.343 52.4482 310.831 48.9476ZM341.134 69.9605C340.664 73.4521 339.859 76.6361 338.71 79.5126C337.561 82.3982 335.951 84.7138 333.889 86.4415C331.826 88.1783 329.212 89.0467 326.055 89.0467C322.898 89.0467 320.347 88.2054 318.276 86.532C316.63 85.1933 315.255 83.4836 314.169 81.4122L341.197 49.3637C341.623 52.6744 341.84 56.0393 341.84 59.4676C341.84 62.8959 341.604 66.4689 341.134 69.9605Z" fill="white"/>
<path d="M365.973 100.381V40.644H379.071V47.5368C380.238 44.9679 382.002 42.9416 384.363 41.4581C386.724 39.9747 389.32 39.2329 392.169 39.2329C396.185 39.2329 399.568 40.5355 402.336 43.1497L400.527 55.2527C399.044 54.0858 397.569 53.2446 396.086 52.738C394.602 52.2315 392.965 51.9782 391.174 51.9782C388.678 51.9782 386.534 52.6023 384.743 53.8506C382.952 55.0989 381.559 56.8718 380.564 59.1694C379.569 61.467 379.071 64.1988 379.071 67.3557V100.381H365.973Z" fill="white"/>
<path d="M430.857 101.783C423.177 101.783 417.162 98.9967 412.793 93.4247C408.424 87.8526 406.244 80.1909 406.244 70.4488C406.244 64.1712 407.266 58.6896 409.311 53.9949C411.355 49.3003 414.222 45.6639 417.904 43.095C421.585 40.526 425.918 39.2325 430.911 39.2325C436.447 39.2325 441.024 41.1411 444.652 44.9584V21.9917L457.804 15.9673V100.372H444.652V95.5775C441.459 99.7114 436.854 101.774 430.857 101.774V101.783ZM432.901 89.336C435.516 89.336 437.804 88.8114 439.767 87.7531C441.73 86.7038 443.358 85.166 444.652 83.1308V57.7036C443.367 55.8312 441.676 54.3477 439.595 53.2622C437.506 52.1677 435.28 51.625 432.901 51.625C428.614 51.625 425.294 53.2441 422.933 56.4734C420.572 59.7117 419.396 64.3612 419.396 70.4488C419.396 74.3475 419.939 77.6944 421.034 80.5075C422.128 83.3117 423.684 85.4826 425.71 87.0294C427.736 88.5672 430.134 89.336 432.901 89.336Z" fill="white"/>
<path d="M494.574 101.783C488.921 101.783 484.054 100.481 479.957 97.8664C475.868 95.2613 472.729 91.6069 470.549 86.9032C468.369 82.2085 467.275 76.7269 467.275 70.4492C467.275 64.1716 468.405 58.3553 470.667 53.7059C472.928 49.0474 476.103 45.4744 480.192 42.9778C484.28 40.4812 489.075 39.2329 494.574 39.2329C499.287 39.2329 503.584 40.2461 507.464 42.2723C511.345 44.2985 514.429 47.4102 516.727 51.5983C519.025 55.7864 520.173 61.1142 520.173 67.5818C520.173 68.5949 520.155 69.7979 520.119 71.1729C520.083 72.5569 519.965 73.9499 519.766 75.352H480.309C480.545 78.3913 481.277 81.0416 482.498 83.303C483.729 85.5644 485.375 87.3283 487.437 88.5947C489.5 89.8611 491.942 90.4943 494.746 90.4943C497.55 90.4943 499.893 90.033 501.992 89.1193C504.099 88.2057 506.098 86.7313 508.016 84.7051L515.614 92.7104C513.163 95.397 510.169 97.577 506.641 99.2595C503.113 100.933 499.088 101.774 494.574 101.774V101.783ZM480.364 64.7867H507.31C507.193 61.9464 506.623 59.4498 505.583 57.306C504.543 55.1622 503.095 53.4978 501.232 52.3038C499.359 51.1188 497.08 50.5218 494.393 50.5218C490.648 50.5218 487.464 51.6887 484.832 54.0315C482.2 56.3653 480.707 59.9564 480.364 64.7867Z" fill="white"/>
<path d="M529.463 100.381V40.6438H542.561V46.4872C544.434 44.0359 546.686 42.2087 549.309 41.0237C551.941 39.8387 554.954 39.2417 558.337 39.2417C565.229 39.2417 570.476 41.3494 574.058 45.5556C577.64 49.7618 579.44 55.9399 579.44 64.09V100.39H566.288V66.487C566.288 61.5029 565.347 57.7761 563.456 55.3248C561.566 52.8734 558.708 51.6432 554.89 51.6432C550.756 51.6432 547.672 52.8553 545.628 55.2705C543.583 57.6857 542.561 61.3491 542.561 66.2609V100.399H529.463V100.381Z" fill="white"/>
<path d="M609.309 101.783C604.786 101.783 601.376 100.498 599.078 97.9203C596.781 95.3423 595.632 91.5884 595.632 86.6405V52.1496H586.568V40.6346H595.632V22.2178L608.73 15.9673V40.6346H622.642V52.1496H608.73V83.773C608.73 85.9168 609.146 87.5088 609.987 88.54C610.828 89.5712 612.122 90.0868 613.877 90.0868C616.717 90.0868 619.82 89.1461 623.167 87.2827L621.701 99.0872C619.865 99.9827 617.938 100.652 615.912 101.104C613.886 101.557 611.688 101.774 609.309 101.774V101.783Z" fill="white"/>
<mask id="mask0_923_10790" style="mask-type:luminance" maskUnits="userSpaceOnUse" x="4" y="9" width="167" height="75">
<path d="M21.4268 40.6711C15.719 44.1898 10.156 47.9437 4.91858 52.1047C16.117 44.9044 28.0572 38.8348 40.2778 33.5974C68.4367 21.5306 105.94 12.6297 136.514 16.6279C141.208 17.2792 145.957 18.3918 150.363 20.1647C155.989 22.1457 160.81 26.1619 163.198 31.6164C171.032 50.3589 140.141 66.6409 125.912 72.2583C119.888 74.583 113.429 76.1117 106.971 77.4414C97.2921 79.3229 87.3782 80.6797 77.5185 80.146C64.8818 79.5309 57.5549 73.3528 69.6036 63.5564C55.6191 72.9457 64.0948 81.132 77.2833 82.4526C87.4053 83.6828 97.6178 82.7511 107.649 81.3038C114.379 80.2636 121.019 78.8706 127.513 76.6454C142.24 71.2995 161.796 61.1774 168.526 46.1799C173.628 35.2437 167.386 22.4261 157.509 16.9173C155.917 15.9585 154.189 15.2077 152.552 14.6288C151.059 14.0951 149.096 13.2539 147.54 12.9464C139.3 10.5312 130.471 9.92511 121.932 9.87988C86.3922 10.7664 51.5757 22.2 21.4268 40.6801" fill="white"/>
</mask>
<g mask="url(#mask0_923_10790)">
<path d="M173.619 9.87109H4.90942V83.674H173.619V9.87109Z" fill="url(#paint0_linear_923_10790)"/>
</g>
<path d="M135.211 55.2523C148.825 40.7885 122.222 40.3362 113.212 40.4357C105.632 40.5533 98.1966 41.9915 90.8154 43.7192C71.9644 48.5857 51.5033 55.9127 37.6183 69.9424C36.3972 71.1726 35.2303 72.6199 34.1629 73.9767C31.5306 78.0925 29.2331 83.1761 30.2462 88.0245C31.8472 94.7906 38.3962 98.3817 44.8729 100.734C67.9482 108.241 96.5232 103.691 120.186 99.6119C110.363 102.796 100.277 105.121 90.0827 106.812C79.8069 108.431 69.3141 109.399 58.8935 108.612C43.3623 107.699 19.8166 100.254 24.8731 80.2724C26.3385 74.7094 29.3235 69.8519 33.2855 65.7995C46.5101 52.5206 64.4023 45.5374 82.1678 40.8518C94.8407 37.7401 108.038 35.8224 121.073 37.6587C131.014 38.7532 148.644 43.7102 135.211 55.2433" fill="white"/>
<path d="M71.9193 93.8141C106.672 93.8141 177.147 73.8052 194.93 42.1638C200.511 32.6116 201.371 19.5679 191.981 12.1867C184.989 5.96332 176.287 2.72498 166.988 0.490723C178.63 1.35005 194.713 7.51915 200.964 18.0753C207.685 30.8387 200.837 45.9086 191.864 55.6236C176.957 71.7066 155.98 80.5351 135.41 86.8308C114.949 92.81 93.2126 96.7267 71.9193 93.8141Z" fill="white"/>
<mask id="mask1_923_10790" style="mask-type:luminance" maskUnits="userSpaceOnUse" x="0" y="28" width="177" height="96">
<path d="M49.7394 42.7156C37.1479 47.8806 25.3344 55.099 15.5923 64.7235C5.90448 74.149 -4.60649 89.7888 3.49836 103.43C11.1238 115.542 27.4601 119.377 40.6395 121.539C74.2077 126.55 108.355 119.196 139.96 108.106C152.533 103.538 164.908 98.346 176.685 92.0141C170.552 94.6192 164.302 96.9439 158.015 99.1691C121.498 111.761 80.2049 121.693 41.5531 115.759C30.3999 113.832 14.9048 110.368 8.50961 100.426C2.10534 89.3275 11.5942 76.5461 19.301 68.4141C28.3828 59.061 39.4636 51.7431 51.3224 46.2886C69.3141 37.8853 88.4726 31.5895 108.183 28.7944C88.0746 29.7261 68.31 35.063 49.7304 42.7247" fill="white"/>
</mask>
<g mask="url(#mask1_923_10790)">
<path d="M176.685 28.7852H-4.60645V126.55H176.685V28.7852Z" fill="url(#paint1_linear_923_10790)"/>
</g>
<mask id="mask2_923_10790" style="mask-type:luminance" maskUnits="userSpaceOnUse" x="73" y="45" width="58" height="29">
<path d="M76.5416 67.998C75.5195 66.9668 75.1214 65.7547 75.3747 64.3979C76.4964 58.2288 89.8567 50.8657 104.565 48.3058C108.084 47.6907 111.476 47.4012 114.551 47.4012C120.765 47.4012 125.713 48.6133 127.957 50.8747C128.979 51.9059 129.377 53.118 129.124 54.4749C128.002 60.644 114.642 68.0071 99.9335 70.567C96.4148 71.1821 93.0227 71.4715 89.9472 71.4715C83.7328 71.4715 78.7849 70.2594 76.5416 67.998ZM104.275 46.6504C88.4094 49.4003 74.9858 57.071 73.7103 64.0994C73.3666 66.008 73.9274 67.7628 75.3476 69.192C77.9165 71.7881 83.2534 73.163 89.9743 73.163C93.1403 73.163 96.6047 72.8555 100.232 72.2314C116.098 69.4725 129.522 61.8108 130.797 54.7824C131.141 52.8738 130.58 51.1189 129.16 49.6897C126.591 47.1027 121.254 45.7188 114.533 45.7188C111.367 45.7188 107.903 46.0263 104.275 46.6595" fill="white"/>
</mask>
<g mask="url(#mask2_923_10790)">
<path d="M131.132 45.7095H73.3667V73.1628H131.132V45.7095Z" fill="url(#paint2_linear_923_10790)"/>
</g>
<defs>
<linearGradient id="paint0_linear_923_10790" x1="4.08174" y1="46.5392" x2="170.616" y2="46.5392" gradientUnits="userSpaceOnUse">
<stop stop-color="#4FA4F5"/>
<stop offset="1" stop-color="#71F0D9"/>
</linearGradient>
<linearGradient id="paint1_linear_923_10790" x1="1.13064" y1="77.7962" x2="176.506" y2="77.7962" gradientUnits="userSpaceOnUse">
<stop stop-color="#4FA4F5"/>
<stop offset="1" stop-color="#71F0D9"/>
</linearGradient>
<linearGradient id="paint2_linear_923_10790" x1="73.4419" y1="59.3405" x2="131.101" y2="59.3405" gradientUnits="userSpaceOnUse">
<stop stop-color="#4FA4F5"/>
<stop offset="1" stop-color="#71F0D9"/>
</linearGradient>
</defs>
</svg>
