<svg width="624" height="124" viewBox="0 0 624 124" fill="none" xmlns="http://www.w3.org/2000/svg">
<path d="M242.935 100.351V22.0887L256.033 15.9468V58.7957L273.572 40.6141H289.122L272.406 57.4479L294.504 100.351H280.239L262.881 66.9187L256.042 73.8114V100.351H242.944H242.935Z" fill="black"/>
<path d="M354.196 44.296C353.246 39.3119 351.645 34.7619 349.402 30.6462C347.167 26.5395 344.146 23.256 340.347 20.8046C336.548 18.3442 331.781 17.123 326.055 17.123C321.415 17.123 317.417 17.9552 314.042 19.6287C310.668 21.3112 307.855 23.5816 305.594 26.44C303.333 29.3075 301.541 32.5639 300.221 36.2002C298.891 39.8456 297.95 43.6628 297.381 47.6609C296.82 51.6591 296.539 55.5758 296.539 59.4383C296.539 64.4677 297.01 69.4789 297.968 74.4902C298.918 79.5014 300.51 84.0604 302.736 88.1671C304.952 92.2828 307.973 95.5754 311.79 98.0449C315.607 100.523 320.365 101.763 326.055 101.763C330.695 101.763 334.685 100.921 338.04 99.2479C341.387 97.5655 344.191 95.295 346.453 92.4095C348.714 89.5239 350.514 86.2585 351.862 82.6131C353.21 78.9677 354.169 75.1505 354.757 71.1614C355.345 67.1632 355.634 63.2555 355.634 59.4383C355.634 54.3366 355.155 49.2892 354.196 44.296ZM310.831 48.9183C311.311 45.4086 312.143 42.2155 313.31 39.33C314.477 36.4444 316.105 34.1288 318.194 32.3739C320.275 30.6191 322.898 29.7416 326.055 29.7416C329.212 29.7416 331.754 30.5919 333.798 32.2835C335.661 33.8393 337.172 35.8655 338.294 38.3711L310.949 70.7905C310.913 70.6006 310.886 70.4106 310.858 70.2206C310.352 66.6929 310.099 63.1018 310.099 59.4383C310.099 55.7748 310.343 52.4189 310.831 48.9183ZM341.134 69.9312C340.664 73.4228 339.859 76.6068 338.71 79.4833C337.561 82.3689 335.951 84.6845 333.889 86.4123C331.826 88.149 329.212 89.0174 326.055 89.0174C322.898 89.0174 320.347 88.1761 318.276 86.5027C316.63 85.164 315.255 83.4543 314.169 81.3829L341.197 49.3344C341.623 52.6451 341.84 56.01 341.84 59.4383C341.84 62.8666 341.604 66.4396 341.134 69.9312Z" fill="black"/>
<path d="M365.973 100.351V40.6142H379.071V47.507C380.238 44.938 382.002 42.9118 384.363 41.4283C386.724 39.9449 389.32 39.2031 392.169 39.2031C396.185 39.2031 399.568 40.5057 402.336 43.1199L400.527 55.2229C399.044 54.056 397.569 53.2147 396.086 52.7082C394.602 52.2016 392.965 51.9484 391.174 51.9484C388.678 51.9484 386.534 52.5725 384.743 53.8208C382.952 55.0691 381.559 56.842 380.564 59.1396C379.569 61.4372 379.071 64.169 379.071 67.3259V100.351H365.973Z" fill="black"/>
<path d="M430.857 101.753C423.177 101.753 417.162 98.9674 412.793 93.3954C408.424 87.8233 406.244 80.1617 406.244 70.4196C406.244 64.1419 407.266 58.6603 409.311 53.9656C411.355 49.271 414.222 45.6347 417.904 43.0657C421.585 40.4968 425.918 39.2032 430.911 39.2032C436.447 39.2032 441.024 41.1119 444.652 44.9291V21.9624L457.804 15.938V100.342H444.652V95.5482C441.459 99.682 436.854 101.744 430.857 101.744V101.753ZM432.901 89.3068C435.516 89.3068 437.804 88.7821 439.767 87.7238C441.73 86.6745 443.358 85.1367 444.652 83.1015V57.6743C443.367 55.8019 441.676 54.3184 439.595 53.233C437.506 52.1384 435.28 51.5957 432.901 51.5957C428.614 51.5957 425.294 53.2149 422.933 56.4441C420.572 59.6825 419.396 64.3319 419.396 70.4196C419.396 74.3182 419.939 77.6651 421.034 80.4783C422.128 83.2824 423.684 85.4533 425.71 87.0001C427.736 88.5379 430.134 89.3068 432.901 89.3068Z" fill="black"/>
<path d="M494.574 101.753C488.921 101.753 484.054 100.451 479.957 97.8366C475.868 95.2315 472.729 91.5771 470.549 86.8734C468.369 82.1787 467.275 76.6971 467.275 70.4195C467.275 64.1418 468.405 58.3255 470.667 53.6761C472.928 49.0176 476.103 45.4446 480.192 42.948C484.28 40.4514 489.075 39.2031 494.574 39.2031C499.287 39.2031 503.584 40.2162 507.464 42.2424C511.345 44.2687 514.429 47.3803 516.727 51.5684C519.025 55.7566 520.173 61.0844 520.173 67.552C520.173 68.5651 520.155 69.7682 520.119 71.1431C520.083 72.5271 519.965 73.9201 519.766 75.3222H480.309C480.545 78.3615 481.277 81.0118 482.498 83.2732C483.729 85.5346 485.375 87.2985 487.437 88.5649C489.5 89.8313 491.942 90.4645 494.746 90.4645C497.55 90.4645 499.893 90.0032 501.992 89.0895C504.099 88.1759 506.098 86.7015 508.016 84.6753L515.614 92.6806C513.163 95.3672 510.169 97.5472 506.641 99.2297C503.113 100.903 499.088 101.744 494.574 101.744V101.753ZM480.364 64.7569H507.31C507.193 61.9166 506.623 59.42 505.583 57.2762C504.543 55.1324 503.095 53.468 501.232 52.274C499.359 51.089 497.08 50.492 494.393 50.492C490.648 50.492 487.464 51.6589 484.832 54.0017C482.2 56.3355 480.707 59.9266 480.364 64.7569Z" fill="black"/>
<path d="M529.463 100.352V40.6145H542.561V46.4579C544.434 44.0066 546.686 42.1794 549.309 40.9944C551.941 39.8094 554.954 39.2124 558.337 39.2124C565.229 39.2124 570.476 41.32 574.058 45.5262C577.64 49.7324 579.44 55.9106 579.44 64.0606V100.361H566.288V66.4577C566.288 61.4736 565.347 57.7468 563.456 55.2955C561.566 52.8441 558.708 51.6139 554.89 51.6139C550.756 51.6139 547.672 52.826 545.628 55.2412C543.583 57.6564 542.561 61.3198 542.561 66.2316V100.37H529.463V100.352Z" fill="black"/>
<path d="M609.309 101.753C604.786 101.753 601.376 100.469 599.078 97.891C596.781 95.313 595.632 91.5591 595.632 86.6112V52.1203H586.568V40.6053H595.632V22.1885L608.73 15.938V40.6053H622.642V52.1203H608.73V83.7437C608.73 85.8875 609.146 87.4795 609.987 88.5107C610.828 89.5419 612.122 90.0575 613.877 90.0575C616.717 90.0575 619.82 89.1168 623.167 87.2534L621.701 99.0579C619.865 99.9534 617.938 100.623 615.912 101.075C613.886 101.527 611.688 101.744 609.309 101.744V101.753Z" fill="black"/>
<mask id="mask0_923_11006" style="mask-type:luminance" maskUnits="userSpaceOnUse" x="4" y="9" width="167" height="74">
<path d="M21.4268 40.6418C15.719 44.1605 10.156 47.9144 4.91858 52.0754C16.117 44.8751 28.0572 38.8055 40.2778 33.5681C68.4367 21.5013 105.94 12.6004 136.514 16.5986C141.208 17.2499 145.957 18.3625 150.363 20.1354C155.989 22.1164 160.81 26.1326 163.198 31.5871C171.032 50.3296 140.141 66.6117 125.912 72.229C119.888 74.5537 113.429 76.0824 106.971 77.4121C97.2921 79.2936 87.3782 80.6504 77.5185 80.1167C64.8818 79.5016 57.5549 73.3235 69.6036 63.5271C55.6191 72.9164 64.0948 81.1027 77.2833 82.4233C87.4053 83.6535 97.6178 82.7218 107.649 81.2746C114.379 80.2343 121.019 78.8413 127.513 76.6161C142.24 71.2701 161.796 61.1481 168.526 46.1505C173.628 35.2144 167.386 22.3968 157.509 16.8881C155.917 15.9292 154.189 15.1784 152.552 14.5995C151.059 14.0658 149.096 13.2246 147.54 12.917C139.3 10.5019 130.471 9.89581 121.932 9.85059C86.3922 10.7371 51.5757 22.1707 21.4268 40.6508" fill="white"/>
</mask>
<g mask="url(#mask0_923_11006)">
<path d="M173.619 9.8418H4.90942V83.6447H173.619V9.8418Z" fill="url(#paint0_linear_923_11006)"/>
</g>
<path d="M135.211 55.2318C148.825 40.7679 122.222 40.3157 113.212 40.4152C105.632 40.5327 98.1966 41.971 90.8154 43.6987C71.9644 48.5652 51.5033 55.8922 37.6183 69.9219C36.3972 71.1521 35.2303 72.5994 34.1629 73.9562C31.5306 78.0719 29.2331 83.1556 30.2462 88.004C31.8472 94.7701 38.3962 98.3612 44.8729 100.713C67.9482 108.221 96.5232 103.671 120.186 99.5914C110.363 102.775 100.277 105.1 90.0827 106.792C79.8069 108.411 69.3141 109.379 58.8935 108.592C43.3623 107.678 19.8166 100.234 24.8731 80.2519C26.3385 74.6889 29.3235 69.8314 33.2855 65.779C46.5101 52.5001 64.4023 45.5169 82.1678 40.8313C94.8407 37.7196 108.038 35.8019 121.073 37.6382C131.014 38.7327 148.644 43.6897 135.211 55.2228" fill="black"/>
<path d="M71.9193 93.7935C106.672 93.7935 177.147 73.7847 194.93 42.1432C200.511 32.5911 201.371 19.5474 191.981 12.1662C184.989 5.9428 176.287 2.70448 166.988 0.470215C178.63 1.32955 194.713 7.49864 200.964 18.0548C207.685 30.8182 200.837 45.8881 191.864 55.6031C176.957 71.6861 155.98 80.5146 135.41 86.8103C114.949 92.7895 93.2126 96.7062 71.9193 93.7935Z" fill="black"/>
<mask id="mask1_923_11006" style="mask-type:luminance" maskUnits="userSpaceOnUse" x="0" y="28" width="177" height="96">
<path d="M49.7394 42.6858C37.1479 47.8508 25.3344 55.0692 15.5923 64.6937C5.90448 74.1192 -4.60649 89.7591 3.49836 103.4C11.1238 115.512 27.4601 119.347 40.6395 121.509C74.2077 126.52 108.355 119.166 139.96 108.076C152.533 103.508 164.908 98.3162 176.685 91.9843C170.552 94.5894 164.302 96.9141 158.015 99.1393C121.498 111.731 80.2049 121.663 41.5531 115.729C30.3999 113.802 14.9048 110.338 8.50961 100.397C2.10534 89.2977 11.5942 76.5163 19.301 68.3843C28.3828 59.0312 39.4636 51.7133 51.3224 46.2588C69.3141 37.8555 88.4726 31.5597 108.183 28.7646C88.0746 29.6963 68.31 35.0332 49.7304 42.6949" fill="white"/>
</mask>
<g mask="url(#mask1_923_11006)">
<path d="M176.685 28.7559H-4.60645V126.521H176.685V28.7559Z" fill="url(#paint1_linear_923_11006)"/>
</g>
<path d="M129.956 54.599C131.15 47.9958 119.716 44.7936 104.411 47.453C89.1058 50.1124 75.7364 57.6203 74.5334 64.2235C73.3394 70.8268 84.773 74.029 100.078 71.3696C115.383 68.7101 128.753 61.2023 129.956 54.599Z" fill="black"/>
<mask id="mask2_923_11006" style="mask-type:luminance" maskUnits="userSpaceOnUse" x="73" y="45" width="58" height="29">
<path d="M76.5416 67.9773C75.5195 66.9461 75.1214 65.734 75.3747 64.3772C76.4964 58.2081 89.8567 50.8449 104.565 48.285C108.084 47.6699 111.476 47.3805 114.551 47.3805C120.765 47.3805 125.713 48.5926 127.957 50.854C128.979 51.8852 129.377 53.0973 129.124 54.4541C128.002 60.6232 114.642 67.9863 99.9335 70.5462C96.4148 71.1613 93.0227 71.4508 89.9472 71.4508C83.7328 71.4508 78.7849 70.2387 76.5416 67.9773ZM104.275 46.6207C88.4094 49.3705 74.9858 57.0412 73.7103 64.0696C73.3666 65.9782 73.9274 67.7331 75.3476 69.1623C77.9165 71.7584 83.2534 73.1333 89.9743 73.1333C93.1403 73.1333 96.6047 72.8257 100.232 72.2016C116.098 69.4427 129.522 61.7811 130.797 54.7526C131.141 52.844 130.58 51.0892 129.16 49.66C126.591 47.0729 121.254 45.689 114.533 45.689C111.367 45.689 107.903 45.9965 104.275 46.6297" fill="white"/>
</mask>
<g mask="url(#mask2_923_11006)">
<path d="M131.132 45.6802H73.3667V73.1335H131.132V45.6802Z" fill="url(#paint2_linear_923_11006)"/>
</g>
<defs>
<linearGradient id="paint0_linear_923_11006" x1="4.08174" y1="47.4643" x2="170.616" y2="47.4643" gradientUnits="userSpaceOnUse">
<stop stop-color="#4FA4F5"/>
<stop offset="1" stop-color="#71F0D9"/>
</linearGradient>
<linearGradient id="paint1_linear_923_11006" x1="1.13064" y1="77.5068" x2="176.506" y2="77.5068" gradientUnits="userSpaceOnUse">
<stop stop-color="#4FA4F5"/>
<stop offset="1" stop-color="#71F0D9"/>
</linearGradient>
<linearGradient id="paint2_linear_923_11006" x1="73.4419" y1="59.0133" x2="131.101" y2="59.0133" gradientUnits="userSpaceOnUse">
<stop stop-color="#4FA4F5"/>
<stop offset="1" stop-color="#71F0D9"/>
</linearGradient>
</defs>
</svg>
