<?xml version="1.0" encoding="UTF-8" standalone="no"?>
<!DOCTYPE svg PUBLIC "-//W3C//DTD SVG 1.1//EN"
 "http://www.w3.org/Graphics/SVG/1.1/DTD/svg11.dtd">
<!-- Generated by graphviz version 12.2.1 (20241206.2353)
 -->
<!-- Title: G Pages: 1 -->
<svg width="1078pt" height="308pt"
 viewBox="0.00 0.00 1077.92 308.27" xmlns="http://www.w3.org/2000/svg" xmlns:xlink="http://www.w3.org/1999/xlink">
<g id="graph0" class="graph" transform="scale(1 1) rotate(0) translate(4 304.27)">
<title>G</title>
<polygon fill="white" stroke="none" points="-4,4 -4,-304.27 1073.92,-304.27 1073.92,4 -4,4"/>
<!-- pr_created -->
<g id="node1" class="node">
<title>pr_created</title>
<polygon fill="lightyellow" stroke="black" points="116.5,-266.27 0,-266.27 0,-228.27 116.5,-228.27 116.5,-266.27"/>
<text text-anchor="middle" x="58.25" y="-248.97" font-family="sans-serif" font-size="14.00">New catalog app</text>
<text text-anchor="middle" x="58.25" y="-233.97" font-family="sans-serif" font-size="14.00">PR created</text>
</g>
<!-- action_script -->
<g id="node3" class="node">
<title>action_script</title>
<polygon fill="lightyellow" stroke="black" points="306,-300.27 153.5,-247.27 306,-194.27 458.5,-247.27 306,-300.27"/>
<text text-anchor="middle" x="306" y="-256.47" font-family="sans-serif" font-size="14.00">GitHub action</text>
<text text-anchor="middle" x="306" y="-241.47" font-family="sans-serif" font-size="14.00">test &#39;helm&#45;app&#45;deploy&#39; </text>
<text text-anchor="middle" x="306" y="-226.47" font-family="sans-serif" font-size="14.00">passed</text>
</g>
<!-- pr_created&#45;&gt;action_script -->
<g id="edge1" class="edge">
<title>pr_created&#45;&gt;action_script</title>
<path fill="none" stroke="black" d="M116.87,-247.27C124.38,-247.27 132.35,-247.27 140.6,-247.27"/>
<polygon fill="black" stroke="black" points="140.49,-250.77 150.49,-247.27 140.49,-243.77 140.49,-250.77"/>
</g>
<!-- manual_review -->
<g id="node2" class="node">
<title>manual_review</title>
<polygon fill="lightyellow" stroke="black" points="693.5,-300.27 517.75,-247.27 693.5,-194.27 869.25,-247.27 693.5,-300.27"/>
<text text-anchor="middle" x="693.5" y="-256.47" font-family="sans-serif" font-size="14.00">Catalog repo owner</text>
<text text-anchor="middle" x="693.5" y="-241.47" font-family="sans-serif" font-size="14.00">accepted the application in</text>
<text text-anchor="middle" x="693.5" y="-226.47" font-family="sans-serif" font-size="14.00">manual review</text>
</g>
<!-- updates_requested -->
<g id="node5" class="node">
<title>updates_requested</title>
<polygon fill="lightyellow" stroke="black" points="693.5,-146.27 607,-108.27 693.5,-70.27 780,-108.27 693.5,-146.27"/>
<text text-anchor="middle" x="693.5" y="-109.97" font-family="sans-serif" font-size="14.00">PR updates</text>
<text text-anchor="middle" x="693.5" y="-94.97" font-family="sans-serif" font-size="14.00">requested</text>
</g>
<!-- manual_review&#45;&gt;updates_requested -->
<g id="edge6" class="edge">
<title>manual_review&#45;&gt;updates_requested</title>
<path fill="none" stroke="red" d="M693.5,-193.96C693.5,-182.14 693.5,-169.65 693.5,-157.97"/>
<polygon fill="red" stroke="red" points="697,-158.14 693.5,-148.14 690,-158.14 697,-158.14"/>
<text text-anchor="middle" x="675.5" y="-171.97" font-family="sans-serif" font-size="14.00" fill="red">No</text>
<text text-anchor="middle" x="675.5" y="-156.97" font-family="sans-serif" font-size="14.00" fill="red"> </text>
</g>
<!-- pr_merged -->
<g id="node6" class="node">
<title>pr_merged</title>
<ellipse fill="lightgreen" stroke="black" cx="999.21" cy="-247.27" rx="69.65" ry="37.48"/>
<text text-anchor="middle" x="999.21" y="-256.47" font-family="sans-serif" font-size="14.00">PR is merged</text>
<text text-anchor="middle" x="999.21" y="-241.47" font-family="sans-serif" font-size="14.00">by catalog</text>
<text text-anchor="middle" x="999.21" y="-226.47" font-family="sans-serif" font-size="14.00">repo owner</text>
</g>
<!-- manual_review&#45;&gt;pr_merged -->
<g id="edge5" class="edge">
<title>manual_review&#45;&gt;pr_merged</title>
<path fill="none" stroke="green" d="M870.73,-247.27C887.2,-247.27 903.28,-247.27 918.17,-247.27"/>
<polygon fill="green" stroke="green" points="917.79,-250.77 927.79,-247.27 917.79,-243.77 917.79,-250.77"/>
<text text-anchor="middle" x="898.88" y="-263.97" font-family="sans-serif" font-size="14.00" fill="green">Yes</text>
<text text-anchor="middle" x="898.88" y="-248.97" font-family="sans-serif" font-size="14.00" fill="green"> </text>
</g>
<!-- action_script&#45;&gt;manual_review -->
<g id="edge2" class="edge">
<title>action_script&#45;&gt;manual_review</title>
<path fill="none" stroke="green" d="M459.91,-247.27C474.65,-247.27 489.72,-247.27 504.75,-247.27"/>
<polygon fill="green" stroke="green" points="504.71,-250.77 514.71,-247.27 504.71,-243.77 504.71,-250.77"/>
<text text-anchor="middle" x="488.12" y="-263.97" font-family="sans-serif" font-size="14.00" fill="green">Yes</text>
<text text-anchor="middle" x="488.12" y="-248.97" font-family="sans-serif" font-size="14.00" fill="green"> </text>
</g>
<!-- pr_updated -->
<g id="node4" class="node">
<title>pr_updated</title>
<polygon fill="lightyellow" stroke="black" points="306,-146.27 208.25,-108.27 306,-70.27 403.75,-108.27 306,-146.27"/>
<text text-anchor="middle" x="306" y="-109.97" font-family="sans-serif" font-size="14.00">PR updated</text>
<text text-anchor="middle" x="306" y="-94.97" font-family="sans-serif" font-size="14.00">by contributor</text>
</g>
<!-- action_script&#45;&gt;pr_updated -->
<g id="edge3" class="edge">
<title>action_script:w&#45;&gt;pr_updated:w</title>
<path fill="none" stroke="green" d="M206.08,-108.27C143.92,-108.27 91.77,-229.93 139.71,-245.62"/>
<polygon fill="green" stroke="green" points="139.17,-249.07 149.57,-247.06 140.18,-242.15 139.17,-249.07"/>
<text text-anchor="middle" x="150.51" y="-171.97" font-family="sans-serif" font-size="14.00" fill="green">Yes</text>
<text text-anchor="middle" x="150.51" y="-156.97" font-family="sans-serif" font-size="14.00" fill="green"> </text>
</g>
<!-- action_script&#45;&gt;pr_updated -->
<g id="edge4" class="edge">
<title>action_script&#45;&gt;pr_updated</title>
<path fill="none" stroke="red" d="M306,-157.82C306,-169.57 306,-182.18 306,-194.09"/>
<polygon fill="red" stroke="red" points="309.5,-157.93 306,-147.93 302.5,-157.93 309.5,-157.93"/>
<text text-anchor="middle" x="316.5" y="-164.47" font-family="sans-serif" font-size="14.00" fill="red">No </text>
</g>
<!-- pr_rejected -->
<g id="node7" class="node">
<title>pr_rejected</title>
<ellipse fill="lightpink" stroke="black" cx="999.21" cy="-77.27" rx="70.71" ry="26.87"/>
<text text-anchor="middle" x="999.21" y="-78.97" font-family="sans-serif" font-size="14.00">PR is rejected</text>
<text text-anchor="middle" x="999.21" y="-63.97" font-family="sans-serif" font-size="14.00">and closed</text>
</g>
<!-- pr_updated&#45;&gt;pr_rejected -->
<g id="edge9" class="edge">
<title>pr_updated:s&#45;&gt;pr_rejected:s</title>
<path fill="none" stroke="red" d="M306,-69.07C306,4.37 935.75,25.91 994.78,-38.95"/>
<polygon fill="red" stroke="red" points="991.42,-39.99 998.61,-47.77 997.84,-37.2 991.42,-39.99"/>
<text text-anchor="middle" x="693.5" y="-10.72" font-family="sans-serif" font-size="14.00" fill="red">No</text>
</g>
<!-- updates_requested&#45;&gt;pr_updated -->
<g id="edge8" class="edge">
<title>updates_requested&#45;&gt;pr_updated</title>
<path fill="none" stroke="green" d="M606,-108.27C549.9,-108.27 476.34,-108.27 416.22,-108.27"/>
<polygon fill="green" stroke="green" points="416.29,-104.77 406.29,-108.27 416.29,-111.77 416.29,-104.77"/>
<text text-anchor="middle" x="488.12" y="-124.97" font-family="sans-serif" font-size="14.00" fill="green">Yes</text>
<text text-anchor="middle" x="488.12" y="-109.97" font-family="sans-serif" font-size="14.00" fill="green"> </text>
</g>
<!-- updates_requested&#45;&gt;pr_rejected -->
<g id="edge7" class="edge">
<title>updates_requested:e&#45;&gt;pr_rejected</title>
<path fill="none" stroke="red" d="M781.81,-108.27C830.31,-108.27 884.31,-100.55 926.23,-92.81"/>
<polygon fill="red" stroke="red" points="926.78,-96.27 935.96,-90.97 925.48,-89.39 926.78,-96.27"/>
<text text-anchor="middle" x="898.88" y="-115.81" font-family="sans-serif" font-size="14.00" fill="red">No</text>
<text text-anchor="middle" x="898.88" y="-100.81" font-family="sans-serif" font-size="14.00" fill="red"> </text>
</g>
</g>
</svg>
